<mxfile host="app.diagrams.net" modified="2023-12-07T13:42:10.145Z" agent="Mozilla/5.0 (Windows NT 10.0; Win64; x64) AppleWebKit/537.36 (KHTML, like Gecko) Chrome/119.0.0.0 Safari/537.36" etag="e7JDyYCLJHtF-QC4Adai" version="22.1.7" type="device">
  <diagram id="R2lEEEUBdFMjLlhIrx00" name="Page-1">
    <mxGraphModel dx="1674" dy="795" grid="1" gridSize="10" guides="1" tooltips="1" connect="1" arrows="1" fold="1" page="1" pageScale="1" pageWidth="850" pageHeight="1100" math="0" shadow="0" extFonts="Permanent Marker^https://fonts.googleapis.com/css?family=Permanent+Marker">
      <root>
        <mxCell id="0" />
        <mxCell id="1" parent="0" />
        <mxCell id="C-vyLk0tnHw3VtMMgP7b-2" value="Product" style="shape=table;startSize=30;container=1;collapsible=1;childLayout=tableLayout;fixedRows=1;rowLines=0;fontStyle=1;align=center;resizeLast=1;" parent="1" vertex="1">
          <mxGeometry x="620" y="420" width="195" height="150" as="geometry" />
        </mxCell>
        <mxCell id="C-vyLk0tnHw3VtMMgP7b-3" value="" style="shape=partialRectangle;collapsible=0;dropTarget=0;pointerEvents=0;fillColor=none;points=[[0,0.5],[1,0.5]];portConstraint=eastwest;top=0;left=0;right=0;bottom=1;" parent="C-vyLk0tnHw3VtMMgP7b-2" vertex="1">
          <mxGeometry y="30" width="195" height="30" as="geometry" />
        </mxCell>
        <mxCell id="C-vyLk0tnHw3VtMMgP7b-4" value="PK" style="shape=partialRectangle;overflow=hidden;connectable=0;fillColor=none;top=0;left=0;bottom=0;right=0;fontStyle=1;" parent="C-vyLk0tnHw3VtMMgP7b-3" vertex="1">
          <mxGeometry width="30" height="30" as="geometry">
            <mxRectangle width="30" height="30" as="alternateBounds" />
          </mxGeometry>
        </mxCell>
        <mxCell id="C-vyLk0tnHw3VtMMgP7b-5" value="Id int NOT NULL " style="shape=partialRectangle;overflow=hidden;connectable=0;fillColor=none;top=0;left=0;bottom=0;right=0;align=left;spacingLeft=6;fontStyle=5;" parent="C-vyLk0tnHw3VtMMgP7b-3" vertex="1">
          <mxGeometry x="30" width="165" height="30" as="geometry">
            <mxRectangle width="165" height="30" as="alternateBounds" />
          </mxGeometry>
        </mxCell>
        <mxCell id="C-vyLk0tnHw3VtMMgP7b-6" value="" style="shape=partialRectangle;collapsible=0;dropTarget=0;pointerEvents=0;fillColor=none;points=[[0,0.5],[1,0.5]];portConstraint=eastwest;top=0;left=0;right=0;bottom=0;" parent="C-vyLk0tnHw3VtMMgP7b-2" vertex="1">
          <mxGeometry y="60" width="195" height="30" as="geometry" />
        </mxCell>
        <mxCell id="C-vyLk0tnHw3VtMMgP7b-7" value="" style="shape=partialRectangle;overflow=hidden;connectable=0;fillColor=none;top=0;left=0;bottom=0;right=0;" parent="C-vyLk0tnHw3VtMMgP7b-6" vertex="1">
          <mxGeometry width="30" height="30" as="geometry">
            <mxRectangle width="30" height="30" as="alternateBounds" />
          </mxGeometry>
        </mxCell>
        <mxCell id="C-vyLk0tnHw3VtMMgP7b-8" value="Name nvarcahr(50)" style="shape=partialRectangle;overflow=hidden;connectable=0;fillColor=none;top=0;left=0;bottom=0;right=0;align=left;spacingLeft=6;" parent="C-vyLk0tnHw3VtMMgP7b-6" vertex="1">
          <mxGeometry x="30" width="165" height="30" as="geometry">
            <mxRectangle width="165" height="30" as="alternateBounds" />
          </mxGeometry>
        </mxCell>
        <mxCell id="Ype7895De5jjJf4S_ieR-58" value="" style="shape=partialRectangle;collapsible=0;dropTarget=0;pointerEvents=0;fillColor=none;points=[[0,0.5],[1,0.5]];portConstraint=eastwest;top=0;left=0;right=0;bottom=0;" parent="C-vyLk0tnHw3VtMMgP7b-2" vertex="1">
          <mxGeometry y="90" width="195" height="30" as="geometry" />
        </mxCell>
        <mxCell id="Ype7895De5jjJf4S_ieR-59" value="" style="shape=partialRectangle;overflow=hidden;connectable=0;fillColor=none;top=0;left=0;bottom=0;right=0;" parent="Ype7895De5jjJf4S_ieR-58" vertex="1">
          <mxGeometry width="30" height="30" as="geometry">
            <mxRectangle width="30" height="30" as="alternateBounds" />
          </mxGeometry>
        </mxCell>
        <mxCell id="Ype7895De5jjJf4S_ieR-60" value="ImageName nvarcahr(50)" style="shape=partialRectangle;overflow=hidden;connectable=0;fillColor=none;top=0;left=0;bottom=0;right=0;align=left;spacingLeft=6;" parent="Ype7895De5jjJf4S_ieR-58" vertex="1">
          <mxGeometry x="30" width="165" height="30" as="geometry">
            <mxRectangle width="165" height="30" as="alternateBounds" />
          </mxGeometry>
        </mxCell>
        <mxCell id="Ype7895De5jjJf4S_ieR-55" value="" style="shape=partialRectangle;collapsible=0;dropTarget=0;pointerEvents=0;fillColor=none;points=[[0,0.5],[1,0.5]];portConstraint=eastwest;top=0;left=0;right=0;bottom=0;" parent="C-vyLk0tnHw3VtMMgP7b-2" vertex="1">
          <mxGeometry y="120" width="195" height="30" as="geometry" />
        </mxCell>
        <mxCell id="Ype7895De5jjJf4S_ieR-56" value="FK1" style="shape=partialRectangle;overflow=hidden;connectable=0;fillColor=none;top=0;left=0;bottom=0;right=0;" parent="Ype7895De5jjJf4S_ieR-55" vertex="1">
          <mxGeometry width="30" height="30" as="geometry">
            <mxRectangle width="30" height="30" as="alternateBounds" />
          </mxGeometry>
        </mxCell>
        <mxCell id="Ype7895De5jjJf4S_ieR-57" value="typeId tinyint NOT NULL" style="shape=partialRectangle;overflow=hidden;connectable=0;fillColor=none;top=0;left=0;bottom=0;right=0;align=left;spacingLeft=6;" parent="Ype7895De5jjJf4S_ieR-55" vertex="1">
          <mxGeometry x="30" width="165" height="30" as="geometry">
            <mxRectangle width="165" height="30" as="alternateBounds" />
          </mxGeometry>
        </mxCell>
        <mxCell id="C-vyLk0tnHw3VtMMgP7b-13" value="Disease" style="shape=table;startSize=30;container=1;collapsible=1;childLayout=tableLayout;fixedRows=1;rowLines=0;fontStyle=1;align=center;resizeLast=1;" parent="1" vertex="1">
          <mxGeometry x="120" y="750" width="210" height="135" as="geometry" />
        </mxCell>
        <mxCell id="C-vyLk0tnHw3VtMMgP7b-14" value="" style="shape=partialRectangle;collapsible=0;dropTarget=0;pointerEvents=0;fillColor=none;points=[[0,0.5],[1,0.5]];portConstraint=eastwest;top=0;left=0;right=0;bottom=1;" parent="C-vyLk0tnHw3VtMMgP7b-13" vertex="1">
          <mxGeometry y="30" width="210" height="30" as="geometry" />
        </mxCell>
        <mxCell id="C-vyLk0tnHw3VtMMgP7b-15" value="PK" style="shape=partialRectangle;overflow=hidden;connectable=0;fillColor=none;top=0;left=0;bottom=0;right=0;fontStyle=1;" parent="C-vyLk0tnHw3VtMMgP7b-14" vertex="1">
          <mxGeometry width="30" height="30" as="geometry">
            <mxRectangle width="30" height="30" as="alternateBounds" />
          </mxGeometry>
        </mxCell>
        <mxCell id="C-vyLk0tnHw3VtMMgP7b-16" value="shipment_id int NOT NULL " style="shape=partialRectangle;overflow=hidden;connectable=0;fillColor=none;top=0;left=0;bottom=0;right=0;align=left;spacingLeft=6;fontStyle=5;" parent="C-vyLk0tnHw3VtMMgP7b-14" vertex="1">
          <mxGeometry x="30" width="180" height="30" as="geometry">
            <mxRectangle width="180" height="30" as="alternateBounds" />
          </mxGeometry>
        </mxCell>
        <mxCell id="C-vyLk0tnHw3VtMMgP7b-17" value="" style="shape=partialRectangle;collapsible=0;dropTarget=0;pointerEvents=0;fillColor=none;points=[[0,0.5],[1,0.5]];portConstraint=eastwest;top=0;left=0;right=0;bottom=0;" parent="C-vyLk0tnHw3VtMMgP7b-13" vertex="1">
          <mxGeometry y="60" width="210" height="30" as="geometry" />
        </mxCell>
        <mxCell id="C-vyLk0tnHw3VtMMgP7b-18" value="" style="shape=partialRectangle;overflow=hidden;connectable=0;fillColor=none;top=0;left=0;bottom=0;right=0;" parent="C-vyLk0tnHw3VtMMgP7b-17" vertex="1">
          <mxGeometry width="30" height="30" as="geometry">
            <mxRectangle width="30" height="30" as="alternateBounds" />
          </mxGeometry>
        </mxCell>
        <mxCell id="C-vyLk0tnHw3VtMMgP7b-19" value="Name nvarcahr NOT NULL" style="shape=partialRectangle;overflow=hidden;connectable=0;fillColor=none;top=0;left=0;bottom=0;right=0;align=left;spacingLeft=6;" parent="C-vyLk0tnHw3VtMMgP7b-17" vertex="1">
          <mxGeometry x="30" width="180" height="30" as="geometry">
            <mxRectangle width="180" height="30" as="alternateBounds" />
          </mxGeometry>
        </mxCell>
        <mxCell id="C-vyLk0tnHw3VtMMgP7b-20" value="" style="shape=partialRectangle;collapsible=0;dropTarget=0;pointerEvents=0;fillColor=none;points=[[0,0.5],[1,0.5]];portConstraint=eastwest;top=0;left=0;right=0;bottom=0;" parent="C-vyLk0tnHw3VtMMgP7b-13" vertex="1">
          <mxGeometry y="90" width="210" height="30" as="geometry" />
        </mxCell>
        <mxCell id="C-vyLk0tnHw3VtMMgP7b-21" value="FK1" style="shape=partialRectangle;overflow=hidden;connectable=0;fillColor=none;top=0;left=0;bottom=0;right=0;" parent="C-vyLk0tnHw3VtMMgP7b-20" vertex="1">
          <mxGeometry width="30" height="30" as="geometry">
            <mxRectangle width="30" height="30" as="alternateBounds" />
          </mxGeometry>
        </mxCell>
        <mxCell id="C-vyLk0tnHw3VtMMgP7b-22" value="TypeId tinyint NOT NULL" style="shape=partialRectangle;overflow=hidden;connectable=0;fillColor=none;top=0;left=0;bottom=0;right=0;align=left;spacingLeft=6;" parent="C-vyLk0tnHw3VtMMgP7b-20" vertex="1">
          <mxGeometry x="30" width="180" height="30" as="geometry">
            <mxRectangle width="180" height="30" as="alternateBounds" />
          </mxGeometry>
        </mxCell>
        <mxCell id="C-vyLk0tnHw3VtMMgP7b-23" value="Type" style="shape=table;startSize=30;container=1;collapsible=1;childLayout=tableLayout;fixedRows=1;rowLines=0;fontStyle=1;align=center;resizeLast=1;" parent="1" vertex="1">
          <mxGeometry x="90" y="470" width="220" height="90" as="geometry" />
        </mxCell>
        <mxCell id="C-vyLk0tnHw3VtMMgP7b-24" value="" style="shape=partialRectangle;collapsible=0;dropTarget=0;pointerEvents=0;fillColor=none;points=[[0,0.5],[1,0.5]];portConstraint=eastwest;top=0;left=0;right=0;bottom=1;" parent="C-vyLk0tnHw3VtMMgP7b-23" vertex="1">
          <mxGeometry y="30" width="220" height="30" as="geometry" />
        </mxCell>
        <mxCell id="C-vyLk0tnHw3VtMMgP7b-25" value="PK" style="shape=partialRectangle;overflow=hidden;connectable=0;fillColor=none;top=0;left=0;bottom=0;right=0;fontStyle=1;" parent="C-vyLk0tnHw3VtMMgP7b-24" vertex="1">
          <mxGeometry width="30" height="30" as="geometry">
            <mxRectangle width="30" height="30" as="alternateBounds" />
          </mxGeometry>
        </mxCell>
        <mxCell id="C-vyLk0tnHw3VtMMgP7b-26" value="Id tinyint NOT NULL " style="shape=partialRectangle;overflow=hidden;connectable=0;fillColor=none;top=0;left=0;bottom=0;right=0;align=left;spacingLeft=6;fontStyle=5;" parent="C-vyLk0tnHw3VtMMgP7b-24" vertex="1">
          <mxGeometry x="30" width="190" height="30" as="geometry">
            <mxRectangle width="190" height="30" as="alternateBounds" />
          </mxGeometry>
        </mxCell>
        <mxCell id="C-vyLk0tnHw3VtMMgP7b-27" value="" style="shape=partialRectangle;collapsible=0;dropTarget=0;pointerEvents=0;fillColor=none;points=[[0,0.5],[1,0.5]];portConstraint=eastwest;top=0;left=0;right=0;bottom=0;" parent="C-vyLk0tnHw3VtMMgP7b-23" vertex="1">
          <mxGeometry y="60" width="220" height="20" as="geometry" />
        </mxCell>
        <mxCell id="C-vyLk0tnHw3VtMMgP7b-28" value="" style="shape=partialRectangle;overflow=hidden;connectable=0;fillColor=none;top=0;left=0;bottom=0;right=0;" parent="C-vyLk0tnHw3VtMMgP7b-27" vertex="1">
          <mxGeometry width="30" height="20" as="geometry">
            <mxRectangle width="30" height="20" as="alternateBounds" />
          </mxGeometry>
        </mxCell>
        <mxCell id="C-vyLk0tnHw3VtMMgP7b-29" value="Name nvarchar(50) NOT NULL" style="shape=partialRectangle;overflow=hidden;connectable=0;fillColor=none;top=0;left=0;bottom=0;right=0;align=left;spacingLeft=6;" parent="C-vyLk0tnHw3VtMMgP7b-27" vertex="1">
          <mxGeometry x="30" width="190" height="20" as="geometry">
            <mxRectangle width="190" height="20" as="alternateBounds" />
          </mxGeometry>
        </mxCell>
        <mxCell id="Ype7895De5jjJf4S_ieR-1" value="Type" style="whiteSpace=wrap;html=1;align=center;" parent="1" vertex="1">
          <mxGeometry x="110" y="80" width="100" height="40" as="geometry" />
        </mxCell>
        <mxCell id="Ype7895De5jjJf4S_ieR-2" value="Id" style="ellipse;whiteSpace=wrap;html=1;align=center;fontStyle=4;" parent="1" vertex="1">
          <mxGeometry x="10" y="20" width="100" height="40" as="geometry" />
        </mxCell>
        <mxCell id="Ype7895De5jjJf4S_ieR-3" value="Name" style="ellipse;whiteSpace=wrap;html=1;align=center;" parent="1" vertex="1">
          <mxGeometry x="10" y="130" width="100" height="40" as="geometry" />
        </mxCell>
        <mxCell id="Ype7895De5jjJf4S_ieR-5" value="" style="endArrow=none;html=1;rounded=0;exitX=1;exitY=1;exitDx=0;exitDy=0;entryX=0.25;entryY=0;entryDx=0;entryDy=0;" parent="1" source="Ype7895De5jjJf4S_ieR-2" target="Ype7895De5jjJf4S_ieR-1" edge="1">
          <mxGeometry relative="1" as="geometry">
            <mxPoint x="300" y="280" as="sourcePoint" />
            <mxPoint x="460" y="280" as="targetPoint" />
          </mxGeometry>
        </mxCell>
        <mxCell id="Ype7895De5jjJf4S_ieR-6" value="" style="endArrow=none;html=1;rounded=0;exitX=1;exitY=0;exitDx=0;exitDy=0;entryX=0.25;entryY=1;entryDx=0;entryDy=0;" parent="1" source="Ype7895De5jjJf4S_ieR-3" target="Ype7895De5jjJf4S_ieR-1" edge="1">
          <mxGeometry relative="1" as="geometry">
            <mxPoint x="300" y="280" as="sourcePoint" />
            <mxPoint x="140" y="120" as="targetPoint" />
          </mxGeometry>
        </mxCell>
        <mxCell id="Ype7895De5jjJf4S_ieR-8" value="Product" style="whiteSpace=wrap;html=1;align=center;" parent="1" vertex="1">
          <mxGeometry x="410" y="85" width="100" height="40" as="geometry" />
        </mxCell>
        <mxCell id="Ype7895De5jjJf4S_ieR-9" value="Id" style="ellipse;whiteSpace=wrap;html=1;align=center;fontStyle=4;" parent="1" vertex="1">
          <mxGeometry x="520" y="30" width="100" height="40" as="geometry" />
        </mxCell>
        <mxCell id="Ype7895De5jjJf4S_ieR-10" value="Name" style="ellipse;whiteSpace=wrap;html=1;align=center;" parent="1" vertex="1">
          <mxGeometry x="530" y="125" width="100" height="40" as="geometry" />
        </mxCell>
        <mxCell id="Ype7895De5jjJf4S_ieR-11" value="" style="endArrow=none;html=1;rounded=0;exitX=0.75;exitY=0;exitDx=0;exitDy=0;entryX=0;entryY=1;entryDx=0;entryDy=0;" parent="1" source="Ype7895De5jjJf4S_ieR-8" target="Ype7895De5jjJf4S_ieR-9" edge="1">
          <mxGeometry relative="1" as="geometry">
            <mxPoint x="300" y="280" as="sourcePoint" />
            <mxPoint x="460" y="280" as="targetPoint" />
          </mxGeometry>
        </mxCell>
        <mxCell id="Ype7895De5jjJf4S_ieR-12" value="" style="endArrow=none;html=1;rounded=0;exitX=0.75;exitY=1;exitDx=0;exitDy=0;entryX=0;entryY=1;entryDx=0;entryDy=0;" parent="1" source="Ype7895De5jjJf4S_ieR-8" target="Ype7895De5jjJf4S_ieR-10" edge="1">
          <mxGeometry relative="1" as="geometry">
            <mxPoint x="300" y="280" as="sourcePoint" />
            <mxPoint x="460" y="280" as="targetPoint" />
          </mxGeometry>
        </mxCell>
        <mxCell id="Ype7895De5jjJf4S_ieR-13" value="Olur" style="shape=rhombus;perimeter=rhombusPerimeter;whiteSpace=wrap;html=1;align=center;" parent="1" vertex="1">
          <mxGeometry x="280" y="80" width="90" height="50" as="geometry" />
        </mxCell>
        <mxCell id="Ype7895De5jjJf4S_ieR-14" value="" style="endArrow=none;html=1;rounded=0;exitX=1;exitY=0.5;exitDx=0;exitDy=0;entryX=0;entryY=0.5;entryDx=0;entryDy=0;" parent="1" source="Ype7895De5jjJf4S_ieR-1" target="Ype7895De5jjJf4S_ieR-13" edge="1">
          <mxGeometry relative="1" as="geometry">
            <mxPoint x="300" y="280" as="sourcePoint" />
            <mxPoint x="460" y="280" as="targetPoint" />
          </mxGeometry>
        </mxCell>
        <mxCell id="Ype7895De5jjJf4S_ieR-15" value="1" style="resizable=0;html=1;align=right;verticalAlign=bottom;" parent="Ype7895De5jjJf4S_ieR-14" connectable="0" vertex="1">
          <mxGeometry x="1" relative="1" as="geometry" />
        </mxCell>
        <mxCell id="Ype7895De5jjJf4S_ieR-16" value="" style="endArrow=none;html=1;rounded=0;entryX=1;entryY=0.5;entryDx=0;entryDy=0;exitX=0;exitY=0.5;exitDx=0;exitDy=0;" parent="1" source="Ype7895De5jjJf4S_ieR-8" target="Ype7895De5jjJf4S_ieR-13" edge="1">
          <mxGeometry relative="1" as="geometry">
            <mxPoint x="300" y="280" as="sourcePoint" />
            <mxPoint x="460" y="280" as="targetPoint" />
          </mxGeometry>
        </mxCell>
        <mxCell id="Ype7895De5jjJf4S_ieR-17" value="M" style="resizable=0;html=1;align=right;verticalAlign=bottom;" parent="Ype7895De5jjJf4S_ieR-16" connectable="0" vertex="1">
          <mxGeometry x="1" relative="1" as="geometry" />
        </mxCell>
        <mxCell id="Ype7895De5jjJf4S_ieR-18" value="ImageName" style="ellipse;whiteSpace=wrap;html=1;align=center;" parent="1" vertex="1">
          <mxGeometry x="650" y="80" width="100" height="40" as="geometry" />
        </mxCell>
        <mxCell id="Ype7895De5jjJf4S_ieR-19" value="" style="endArrow=none;html=1;rounded=0;exitX=1;exitY=0.5;exitDx=0;exitDy=0;entryX=0;entryY=0.5;entryDx=0;entryDy=0;" parent="1" source="Ype7895De5jjJf4S_ieR-8" target="Ype7895De5jjJf4S_ieR-18" edge="1">
          <mxGeometry relative="1" as="geometry">
            <mxPoint x="300" y="280" as="sourcePoint" />
            <mxPoint x="460" y="280" as="targetPoint" />
          </mxGeometry>
        </mxCell>
        <mxCell id="Ype7895De5jjJf4S_ieR-22" value="Disease" style="whiteSpace=wrap;html=1;align=center;" parent="1" vertex="1">
          <mxGeometry x="210" y="300" width="100" height="40" as="geometry" />
        </mxCell>
        <mxCell id="Ype7895De5jjJf4S_ieR-23" value="Name" style="ellipse;whiteSpace=wrap;html=1;align=center;" parent="1" vertex="1">
          <mxGeometry x="370" y="260" width="100" height="40" as="geometry" />
        </mxCell>
        <mxCell id="Ype7895De5jjJf4S_ieR-24" value="Id" style="ellipse;whiteSpace=wrap;html=1;align=center;fontStyle=4;" parent="1" vertex="1">
          <mxGeometry x="310" y="360" width="100" height="40" as="geometry" />
        </mxCell>
        <mxCell id="Ype7895De5jjJf4S_ieR-25" value="" style="endArrow=none;html=1;rounded=0;exitX=0.75;exitY=0;exitDx=0;exitDy=0;entryX=0.028;entryY=0.322;entryDx=0;entryDy=0;entryPerimeter=0;" parent="1" source="Ype7895De5jjJf4S_ieR-22" target="Ype7895De5jjJf4S_ieR-23" edge="1">
          <mxGeometry relative="1" as="geometry">
            <mxPoint x="300" y="280" as="sourcePoint" />
            <mxPoint x="460" y="280" as="targetPoint" />
          </mxGeometry>
        </mxCell>
        <mxCell id="Ype7895De5jjJf4S_ieR-26" value="" style="endArrow=none;html=1;rounded=0;entryX=0;entryY=0.5;entryDx=0;entryDy=0;exitX=0.75;exitY=1;exitDx=0;exitDy=0;" parent="1" source="Ype7895De5jjJf4S_ieR-22" target="Ype7895De5jjJf4S_ieR-24" edge="1">
          <mxGeometry relative="1" as="geometry">
            <mxPoint x="300" y="280" as="sourcePoint" />
            <mxPoint x="460" y="280" as="targetPoint" />
          </mxGeometry>
        </mxCell>
        <mxCell id="Ype7895De5jjJf4S_ieR-32" value="Olur" style="shape=rhombus;perimeter=rhombusPerimeter;whiteSpace=wrap;html=1;align=center;" parent="1" vertex="1">
          <mxGeometry x="100" y="220" width="120" height="60" as="geometry" />
        </mxCell>
        <mxCell id="Ype7895De5jjJf4S_ieR-33" value="" style="endArrow=none;html=1;rounded=0;exitX=0.5;exitY=1;exitDx=0;exitDy=0;entryX=0.5;entryY=0;entryDx=0;entryDy=0;" parent="1" source="Ype7895De5jjJf4S_ieR-1" target="Ype7895De5jjJf4S_ieR-32" edge="1">
          <mxGeometry relative="1" as="geometry">
            <mxPoint x="300" y="280" as="sourcePoint" />
            <mxPoint x="460" y="280" as="targetPoint" />
          </mxGeometry>
        </mxCell>
        <mxCell id="Ype7895De5jjJf4S_ieR-34" value="1" style="resizable=0;html=1;align=right;verticalAlign=bottom;" parent="Ype7895De5jjJf4S_ieR-33" connectable="0" vertex="1">
          <mxGeometry x="1" relative="1" as="geometry" />
        </mxCell>
        <mxCell id="Ype7895De5jjJf4S_ieR-35" value="" style="endArrow=none;html=1;rounded=0;entryX=1;entryY=1;entryDx=0;entryDy=0;exitX=0;exitY=0.5;exitDx=0;exitDy=0;" parent="1" source="Ype7895De5jjJf4S_ieR-22" target="Ype7895De5jjJf4S_ieR-32" edge="1">
          <mxGeometry relative="1" as="geometry">
            <mxPoint x="300" y="280" as="sourcePoint" />
            <mxPoint x="460" y="280" as="targetPoint" />
          </mxGeometry>
        </mxCell>
        <mxCell id="Ype7895De5jjJf4S_ieR-36" value="M" style="resizable=0;html=1;align=right;verticalAlign=bottom;" parent="Ype7895De5jjJf4S_ieR-35" connectable="0" vertex="1">
          <mxGeometry x="1" relative="1" as="geometry" />
        </mxCell>
        <mxCell id="Ype7895De5jjJf4S_ieR-65" value="ProductDisease" style="shape=table;startSize=30;container=1;collapsible=1;childLayout=tableLayout;fixedRows=1;rowLines=0;fontStyle=1;align=center;resizeLast=1;" parent="1" vertex="1">
          <mxGeometry x="400" y="750" width="240" height="170" as="geometry" />
        </mxCell>
        <mxCell id="Ype7895De5jjJf4S_ieR-66" value="" style="shape=partialRectangle;collapsible=0;dropTarget=0;pointerEvents=0;fillColor=none;points=[[0,0.5],[1,0.5]];portConstraint=eastwest;top=0;left=0;right=0;bottom=1;" parent="Ype7895De5jjJf4S_ieR-65" vertex="1">
          <mxGeometry y="30" width="240" height="30" as="geometry" />
        </mxCell>
        <mxCell id="Ype7895De5jjJf4S_ieR-67" value="PK" style="shape=partialRectangle;overflow=hidden;connectable=0;fillColor=none;top=0;left=0;bottom=0;right=0;fontStyle=1;" parent="Ype7895De5jjJf4S_ieR-66" vertex="1">
          <mxGeometry width="30" height="30" as="geometry">
            <mxRectangle width="30" height="30" as="alternateBounds" />
          </mxGeometry>
        </mxCell>
        <mxCell id="Ype7895De5jjJf4S_ieR-68" value="shipment_id int NOT NULL " style="shape=partialRectangle;overflow=hidden;connectable=0;fillColor=none;top=0;left=0;bottom=0;right=0;align=left;spacingLeft=6;fontStyle=5;" parent="Ype7895De5jjJf4S_ieR-66" vertex="1">
          <mxGeometry x="30" width="210" height="30" as="geometry">
            <mxRectangle width="210" height="30" as="alternateBounds" />
          </mxGeometry>
        </mxCell>
        <mxCell id="Ype7895De5jjJf4S_ieR-69" value="" style="shape=partialRectangle;collapsible=0;dropTarget=0;pointerEvents=0;fillColor=none;points=[[0,0.5],[1,0.5]];portConstraint=eastwest;top=0;left=0;right=0;bottom=0;" parent="Ype7895De5jjJf4S_ieR-65" vertex="1">
          <mxGeometry y="60" width="240" height="30" as="geometry" />
        </mxCell>
        <mxCell id="Ype7895De5jjJf4S_ieR-70" value="FK1" style="shape=partialRectangle;overflow=hidden;connectable=0;fillColor=none;top=0;left=0;bottom=0;right=0;" parent="Ype7895De5jjJf4S_ieR-69" vertex="1">
          <mxGeometry width="30" height="30" as="geometry">
            <mxRectangle width="30" height="30" as="alternateBounds" />
          </mxGeometry>
        </mxCell>
        <mxCell id="Ype7895De5jjJf4S_ieR-71" value="ProductId int Not Null" style="shape=partialRectangle;overflow=hidden;connectable=0;fillColor=none;top=0;left=0;bottom=0;right=0;align=left;spacingLeft=6;" parent="Ype7895De5jjJf4S_ieR-69" vertex="1">
          <mxGeometry x="30" width="210" height="30" as="geometry">
            <mxRectangle width="210" height="30" as="alternateBounds" />
          </mxGeometry>
        </mxCell>
        <mxCell id="Ype7895De5jjJf4S_ieR-72" value="" style="shape=partialRectangle;collapsible=0;dropTarget=0;pointerEvents=0;fillColor=none;points=[[0,0.5],[1,0.5]];portConstraint=eastwest;top=0;left=0;right=0;bottom=0;" parent="Ype7895De5jjJf4S_ieR-65" vertex="1">
          <mxGeometry y="90" width="240" height="30" as="geometry" />
        </mxCell>
        <mxCell id="Ype7895De5jjJf4S_ieR-73" value="FK2" style="shape=partialRectangle;overflow=hidden;connectable=0;fillColor=none;top=0;left=0;bottom=0;right=0;" parent="Ype7895De5jjJf4S_ieR-72" vertex="1">
          <mxGeometry width="30" height="30" as="geometry">
            <mxRectangle width="30" height="30" as="alternateBounds" />
          </mxGeometry>
        </mxCell>
        <mxCell id="Ype7895De5jjJf4S_ieR-74" value="DiseaseId int Not Null" style="shape=partialRectangle;overflow=hidden;connectable=0;fillColor=none;top=0;left=0;bottom=0;right=0;align=left;spacingLeft=6;" parent="Ype7895De5jjJf4S_ieR-72" vertex="1">
          <mxGeometry x="30" width="210" height="30" as="geometry">
            <mxRectangle width="210" height="30" as="alternateBounds" />
          </mxGeometry>
        </mxCell>
        <mxCell id="Ype7895De5jjJf4S_ieR-83" value="" style="shape=partialRectangle;collapsible=0;dropTarget=0;pointerEvents=0;fillColor=none;points=[[0,0.5],[1,0.5]];portConstraint=eastwest;top=0;left=0;right=0;bottom=0;" parent="Ype7895De5jjJf4S_ieR-65" vertex="1">
          <mxGeometry y="120" width="240" height="20" as="geometry" />
        </mxCell>
        <mxCell id="Ype7895De5jjJf4S_ieR-84" value="" style="shape=partialRectangle;overflow=hidden;connectable=0;fillColor=none;top=0;left=0;bottom=0;right=0;" parent="Ype7895De5jjJf4S_ieR-83" vertex="1">
          <mxGeometry width="30" height="20" as="geometry">
            <mxRectangle width="30" height="20" as="alternateBounds" />
          </mxGeometry>
        </mxCell>
        <mxCell id="Ype7895De5jjJf4S_ieR-85" value="Note int Not Null" style="shape=partialRectangle;overflow=hidden;connectable=0;fillColor=none;top=0;left=0;bottom=0;right=0;align=left;spacingLeft=6;" parent="Ype7895De5jjJf4S_ieR-83" vertex="1">
          <mxGeometry x="30" width="210" height="20" as="geometry">
            <mxRectangle width="210" height="20" as="alternateBounds" />
          </mxGeometry>
        </mxCell>
        <mxCell id="mj62UxBWHhY_oJ8B-fep-19" value="" style="shape=partialRectangle;collapsible=0;dropTarget=0;pointerEvents=0;fillColor=none;points=[[0,0.5],[1,0.5]];portConstraint=eastwest;top=0;left=0;right=0;bottom=0;" vertex="1" parent="Ype7895De5jjJf4S_ieR-65">
          <mxGeometry y="140" width="240" height="30" as="geometry" />
        </mxCell>
        <mxCell id="mj62UxBWHhY_oJ8B-fep-20" value="" style="shape=partialRectangle;overflow=hidden;connectable=0;fillColor=none;top=0;left=0;bottom=0;right=0;" vertex="1" parent="mj62UxBWHhY_oJ8B-fep-19">
          <mxGeometry width="30" height="30" as="geometry">
            <mxRectangle width="30" height="30" as="alternateBounds" />
          </mxGeometry>
        </mxCell>
        <mxCell id="mj62UxBWHhY_oJ8B-fep-21" value="ImageName nvarchar" style="shape=partialRectangle;overflow=hidden;connectable=0;fillColor=none;top=0;left=0;bottom=0;right=0;align=left;spacingLeft=6;" vertex="1" parent="mj62UxBWHhY_oJ8B-fep-19">
          <mxGeometry x="30" width="210" height="30" as="geometry">
            <mxRectangle width="210" height="30" as="alternateBounds" />
          </mxGeometry>
        </mxCell>
        <mxCell id="Ype7895De5jjJf4S_ieR-75" value="Relationship" style="shape=rhombus;perimeter=rhombusPerimeter;whiteSpace=wrap;html=1;align=center;" parent="1" vertex="1">
          <mxGeometry x="300" y="170" width="120" height="60" as="geometry" />
        </mxCell>
        <mxCell id="Ype7895De5jjJf4S_ieR-76" value="" style="endArrow=none;html=1;rounded=0;entryX=0.5;entryY=1;entryDx=0;entryDy=0;exitX=0.5;exitY=0;exitDx=0;exitDy=0;" parent="1" source="Ype7895De5jjJf4S_ieR-22" target="Ype7895De5jjJf4S_ieR-75" edge="1">
          <mxGeometry relative="1" as="geometry">
            <mxPoint x="310" y="340" as="sourcePoint" />
            <mxPoint x="470" y="340" as="targetPoint" />
          </mxGeometry>
        </mxCell>
        <mxCell id="Ype7895De5jjJf4S_ieR-77" value="M" style="resizable=0;html=1;align=right;verticalAlign=bottom;" parent="Ype7895De5jjJf4S_ieR-76" connectable="0" vertex="1">
          <mxGeometry x="1" relative="1" as="geometry" />
        </mxCell>
        <mxCell id="Ype7895De5jjJf4S_ieR-78" value="" style="endArrow=none;html=1;rounded=0;exitX=0.25;exitY=1;exitDx=0;exitDy=0;entryX=1;entryY=0;entryDx=0;entryDy=0;" parent="1" source="Ype7895De5jjJf4S_ieR-8" target="Ype7895De5jjJf4S_ieR-75" edge="1">
          <mxGeometry relative="1" as="geometry">
            <mxPoint x="310" y="340" as="sourcePoint" />
            <mxPoint x="390" y="180" as="targetPoint" />
          </mxGeometry>
        </mxCell>
        <mxCell id="Ype7895De5jjJf4S_ieR-79" value="M" style="resizable=0;html=1;align=right;verticalAlign=bottom;" parent="Ype7895De5jjJf4S_ieR-78" connectable="0" vertex="1">
          <mxGeometry x="1" relative="1" as="geometry" />
        </mxCell>
        <mxCell id="Ype7895De5jjJf4S_ieR-80" value="Note" style="ellipse;whiteSpace=wrap;html=1;align=center;" parent="1" vertex="1">
          <mxGeometry x="530" y="180" width="100" height="40" as="geometry" />
        </mxCell>
        <mxCell id="Ype7895De5jjJf4S_ieR-81" value="" style="endArrow=none;html=1;rounded=0;entryX=0;entryY=0.5;entryDx=0;entryDy=0;exitX=1;exitY=0.5;exitDx=0;exitDy=0;" parent="1" source="Ype7895De5jjJf4S_ieR-75" target="Ype7895De5jjJf4S_ieR-80" edge="1">
          <mxGeometry relative="1" as="geometry">
            <mxPoint x="310" y="340" as="sourcePoint" />
            <mxPoint x="470" y="340" as="targetPoint" />
          </mxGeometry>
        </mxCell>
        <mxCell id="Ype7895De5jjJf4S_ieR-87" value="" style="edgeStyle=entityRelationEdgeStyle;fontSize=12;html=1;endArrow=ERmany;rounded=0;exitX=1;exitY=0.5;exitDx=0;exitDy=0;" parent="1" source="C-vyLk0tnHw3VtMMgP7b-24" target="Ype7895De5jjJf4S_ieR-55" edge="1">
          <mxGeometry width="100" height="100" relative="1" as="geometry">
            <mxPoint x="340" y="640" as="sourcePoint" />
            <mxPoint x="440" y="540" as="targetPoint" />
          </mxGeometry>
        </mxCell>
        <mxCell id="Ype7895De5jjJf4S_ieR-89" value="" style="edgeStyle=entityRelationEdgeStyle;fontSize=12;html=1;endArrow=ERmany;rounded=0;exitX=1;exitY=0.5;exitDx=0;exitDy=0;entryX=0;entryY=0.5;entryDx=0;entryDy=0;" parent="1" source="C-vyLk0tnHw3VtMMgP7b-14" target="Ype7895De5jjJf4S_ieR-72" edge="1">
          <mxGeometry width="100" height="100" relative="1" as="geometry">
            <mxPoint x="340" y="640" as="sourcePoint" />
            <mxPoint x="440" y="540" as="targetPoint" />
          </mxGeometry>
        </mxCell>
        <mxCell id="Ype7895De5jjJf4S_ieR-90" value="" style="edgeStyle=entityRelationEdgeStyle;fontSize=12;html=1;endArrow=ERoneToMany;rounded=0;exitX=0.005;exitY=0.742;exitDx=0;exitDy=0;entryX=1;entryY=0.5;entryDx=0;entryDy=0;exitPerimeter=0;" parent="1" source="C-vyLk0tnHw3VtMMgP7b-3" target="Ype7895De5jjJf4S_ieR-69" edge="1">
          <mxGeometry width="100" height="100" relative="1" as="geometry">
            <mxPoint x="340" y="640" as="sourcePoint" />
            <mxPoint x="440" y="540" as="targetPoint" />
          </mxGeometry>
        </mxCell>
        <mxCell id="Ype7895De5jjJf4S_ieR-91" value="" style="edgeStyle=entityRelationEdgeStyle;fontSize=12;html=1;endArrow=ERmany;rounded=0;entryX=0;entryY=0.5;entryDx=0;entryDy=0;exitX=0;exitY=0.5;exitDx=0;exitDy=0;" parent="1" source="C-vyLk0tnHw3VtMMgP7b-24" target="C-vyLk0tnHw3VtMMgP7b-20" edge="1">
          <mxGeometry width="100" height="100" relative="1" as="geometry">
            <mxPoint x="40" y="590" as="sourcePoint" />
            <mxPoint x="70" y="830" as="targetPoint" />
          </mxGeometry>
        </mxCell>
        <mxCell id="mj62UxBWHhY_oJ8B-fep-1" value="ImageName" style="ellipse;whiteSpace=wrap;html=1;align=center;" vertex="1" parent="1">
          <mxGeometry x="520" y="270" width="100" height="40" as="geometry" />
        </mxCell>
        <mxCell id="mj62UxBWHhY_oJ8B-fep-2" value="" style="endArrow=none;html=1;rounded=0;entryX=0;entryY=0;entryDx=0;entryDy=0;" edge="1" parent="1" source="Ype7895De5jjJf4S_ieR-75" target="mj62UxBWHhY_oJ8B-fep-1">
          <mxGeometry relative="1" as="geometry">
            <mxPoint x="500" y="410" as="sourcePoint" />
            <mxPoint x="660" y="410" as="targetPoint" />
          </mxGeometry>
        </mxCell>
      </root>
    </mxGraphModel>
  </diagram>
</mxfile>
